<svg height="1024pt" viewBox="0 0 1024 1024" width="1024pt" xmlns="http://www.w3.org/2000/svg"><path d="M546.9 29.4c-.2.2-7.4.6-15.9.9-20.9.7-29 2.8-41.1 11-8.6 5.7-14.2 12-23.6 26.6-.1.2-6.6.5-14.5.7-20 .4-31.4 1.4-50.8 4.5-10.6 1.6-19.1 4.6-30.6 10.5-14.3 7.4-55.9 31.4-65.4 37.7-7.3 4.8-21 14.6-22 15.7-.3.3-3.6 3-7.5 6.1-14.5 11.7-24.2 21.3-26.1 25.8-1.8 4.2-6 25.1-7 34.2-.4 3.5-.9 8.4-1.3 10.7l-.6 4.4-14.6 7.6c-41.4 21.9-49 26.4-56.9 34.2-4.8 4.7-9.6 10.7-12.8 16.1l-5.1 8.5-12.1 2.8c-7.1 1.6-15 4.2-18.9 6.2-13.3 6.7-24.8 19.7-33.2 38-6.7 14.4-13.6 41.4-15.4 59.9-.4 3.8-.9 7.9-1.1 9-.2 1-.6 5.3-.9 9.5-.3 4.1-.8 10-1.1 13s-.7 18.1-.8 33.5c-.4 31.2.3 38 5.6 51.7 5.3 14 17.1 29.1 29.5 38 3 2.2 5.5 5.2 7.3 8.8 4.4 8.8 14.1 22.7 23 33.3 8.1 9.7 8.2 9.9 7.6 14.1-1 6.4-1.6 9.9-2.1 12.1-2.3 10.7-2.4 36.6-.3 48.2 2.5 13.5 11.4 34.5 22.5 53.4 3.3 5.6 3.7 6.7 4.9 14.3.3 2.2 1 4.8 1.5 5.8s.8 1.8.5 1.8c-1.8 0 10.9 27 20.7 44 3.3 5.6 8.3 17.8 14.9 35.9 10.8 29.8 11.2 30.8 17.1 39.5 9 13.3 23.5 26.3 39.5 35.2 7.7 4.3 9.4 5.9 22.5 21.3 7.8 9.1 15 17.5 15.9 18.6 11.1 13.3 14 17 18.1 23.2 14.4 21.7 33.1 33.1 62.2 37.9 7.6 1.2 43.1 1.3 48 .1 1.1-.2 4.5-.8 7.6-1.1 3.1-.4 6.6-.8 7.7-1.1 7-1.3 34.8-4.2 47.7-5 23.3-1.3 28.5-1.7 34.9-3.1 9.3-1.8 17.5-5.9 27.1-13.2 9.2-7.1 11.1-8.8 36.1-32.8 21.9-21 19.1-18.4 28.4-26.4 16.8-14.5 21.7-17.2 45.7-25.4 49-16.7 55.1-19 67.6-26.3 23.4-13.6 64.4-51.3 91.1-83.8 13.9-16.8 26.2-35.2 31.7-47.2 8-17.5 8.5-18.9 16.4-51.6 6.6-26.9 14.3-47.4 28.1-74.8 11.3-22.4 17.8-41.4 19.9-57.9.4-3 .9-6.3 1.1-7.3.5-3.1 1.6-17 1.8-25.2.3-7.6.7-8.9 8.5-26.5 13.6-30.6 16.9-42.2 17.8-63.5.5-11 .9-13.5 2.8-16.5 5.9-9.4 8.3-18.1 8.3-30.7 0-5.1-.6-12.3-1.4-16-1.8-8.7-19.1-60.2-25.6-76.3-19.5-48.1-42.4-69-75.5-69.2-4.3 0-10.7.5-14.3 1.2s-7.3 1.4-8.2 1.5c-1 0-2 .4-2.4.7-.9.9-3.4-.2-7.4-3.2-8.5-6.5-17.7-12.5-28.2-18.1-16-8.6-21.5-13.3-33.1-28.3-10.2-13.3-22.7-35.6-36.6-65.6-17.7-38-23.5-48-30.3-53.1-7.8-5.7-21.4-10.9-35.3-13.4-4.8-.8-7.6-1.3-11.2-2-1.6-.2-5.9-.7-9.8-1.1-3.8-.3-8.1-.8-9.5-1.1-3-.6-80.4-1.5-81.1-.9zm80.6 13.9c1.1.2 5.2.8 9 1.1 22.4 2.2 42.4 8.1 50 14.8 4.8 4.2 6.4 7.3 33.2 62.8 8.5 17.4 24 45.4 26.3 47 .3.3 2 2.5 3.7 5 4.4 6.5 14.4 17.1 20.7 21.9 3 2.3 9.8 6.5 15.2 9.5 11.2 5.9 22.3 12.8 22.4 13.7 0 .8-9.1 2.6-17.5 3.5-3.3.3-6.9.8-8 1-1.1.3-6.9.7-12.9.9l-10.8.5-6.7-5.8c-20.3-17.9-55.7-42.4-75.7-52.5-3.8-1.9-19.7-8.5-35.4-14.6-15.7-6.2-29.4-11.6-30.5-12.1s-5.6-2.3-10-3.9c-6.7-2.6-9.2-4.2-15-9.8-8.1-7.9-14.2-15.1-20.7-24.4-8.1-11.5-17.2-17.9-33.8-23.7-10-3.5-24.3-6.6-36-7.7-6.9-.7-13.4-1.6-13.7-1.9-.8-.8 11.3-13.1 16.2-16.4 10.3-7.1 14.6-8.1 35.5-8.9 8.5-.3 15.7-.7 15.9-.9.5-.5 76.3.3 78.6.9zm-171 44.9c.8.8-4.8 13.6-5.8 13.3-7.4-2.3-49.7-3.9-64.5-2.3-3.5.3-6.2.5-6 .3s5.6-1.8 12.1-3.4c13.9-3.7 32.6-6.8 45.7-7.7 5.2-.3 9.6-.7 9.7-.8.3-.3 8.5.3 8.8.6zm37 3.3c12.9 1.9 20.7 5.2 35.7 15.1 12.9 8.6 16.1 11.2 11.5 9.5-2.9-1.1-7.5-1.8-17-2.6-3.7-.4-7.8-.8-9-1.1-1.2-.2-3.7-.7-5.6-1-1.8-.3-4.3-.7-5.5-1-11.8-2.3-29-5.4-32.8-6-2.7-.3-4.8-1.1-4.8-1.8 0-2.8 4.6-13.6 6-13.9.8-.1 5.1.3 9.5 1s9.8 1.5 12 1.8zm53.8 9.8c2.1 1.6 3.5 3.2 3.2 3.5-.3.4-.9.2-1.3-.3-.4-.6-1.4-1.5-2.3-2-4.1-2.5-12.9-8.7-12.9-9.1 0-.8 9.2 4.7 13.3 7.9zm-114.6 11.2c3.9.3 8 .8 9 1s2.4.4 3.1.4c.8.1.2 1.9-1.7 5.3-5.9 10.3-4 9.6-26.6 10.2-11 .3-21.1.8-22.5 1s-5.2.7-8.5 1c-19.3 2-38.5 6.1-51.8 11.2-3.7 1.4-7 2.4-7.3 2.2-.2-.3 1-2.5 2.7-5.1 3.6-5.4 12.3-11.5 25.9-17.9 11.8-5.6 14.8-6.6 26.8-8.7 10.1-1.8 35.8-2.1 50.9-.6zm37.8 5.1c1.1.2 3.4.7 5 .9 1.7.3 6.8 1.3 11.5 2.1 4.7.9 9.6 1.8 11 2 1.4.3 6.1 1.1 10.5 1.9s11.4 1.7 15.5 2.1c8.8.6 12.7 1.6 35.7 9.1l17.2 5.6 13.8 11.5c7.6 6.4 14.6 12.4 15.6 13.3 2.8 2.5 11.4 6.5 20.7 9.4 14.3 4.4 16.2 5.3 25.9 11.5 12.5 8.1 17.1 12 33.7 28.5 28.8 28.5 53.2 62 69.2 94.6 6 12.4 6.8 14.3 12.1 29.5 3.2 9.2 6.8 23.6 7.6 30.9.3 2.7.8 5.7 1 6.5s.7 4.4 1 8c.4 3.6.8 7.6 1 9s.7 5.6 1 9.5c.3 3.8.8 8.3 1.1 10 .2 1.6.6 13.1.9 25.5.5 24.1-.5 34.4-4.6 46.6-3.5 10.9-8.2 17-25.8 34.4-22.9 22.5-33.9 38-41.6 58.5-3.7 9.7-4.4 14-6 35-1.8 23.3-8.3 43.1-19.5 59-19.7 28.2-25.1 37.1-36.7 61.5-4.6 9.6-9.3 19.3-10.5 21.5-12.2 23-34.3 37.4-63.3 41.4-6.6.8-60.9.6-68.5-.3-1.9-.2-7.5-.7-12.5-1.1-4.9-.3-10.3-.8-12-1-1.6-.3-6.8-.9-11.5-1.5-27.6-3.6-52.2-9.4-67.2-16.1-4.9-2.2-12.7-5.6-17.5-7.8-19.6-8.6-40.5-14.5-67.3-19-11-1.9-12.3-2-18.5-2.6-3.3-.3-7.8-.8-9.9-1-2.2-.3-10-.8-17.5-1.1s-16.2-.7-19.3-.8c-6.9-.3-7.5-1-14.7-14.7-5.6-10.5-10.5-24.5-11.6-32.9-.4-3-.9-6.4-1.1-7.5-.3-1.1-.5-9.7-.6-19-.1-23.3-2.8-36.9-10.1-52l-2.9-6 1.7-5c4.5-13.2 5.6-21.4 4-29.8-2.5-12.7-12.2-26.4-28-39.3-5.6-4.5-19.6-14.2-23.6-16.2-2.1-1.1-3.2-3.2-5.4-10.5-4.1-13.3-9.5-26.4-17.1-42.1-1.9-3.8-3.4-7.4-3.4-8.1 0-.6 1.5-2.6 3.4-4.4l3.3-3.2 2.3 5.3c7.2 16.8 24.2 39.3 50.3 66.4 27.5 28.7 37 42.3 47.1 68.2 8 20.4 12.1 26.9 24.7 39.3 25.1 24.8 83.3 66 117.7 83.3 9.7 4.9 45.4 15.6 57.2 17.1 28.8 3.8 54.3-1.8 76.5-16.8 3.3-2.2 13-9.9 21.5-17 17.9-15 35.8-28.5 55-41.6 7.4-5.1 16.1-11.8 19.3-14.9 6.1-5.9 14.1-18.4 19.7-30.7 7.1-15.6 8.5-18.5 14.6-31 11.8-24.4 31-52.9 51.4-76.5 11.2-13 11.6-13.5 15.5-18.9 8.2-11.4 14.1-28.3 16-45.4.7-7.2 1.7-15.6 2.5-22.7.5-4.1 1.2-10.4 1.5-14 .4-3.6.8-7.6 1-9 .4-2.4.6-5.1 2-20.5.4-3.9.8-8.1 1-9.5 1-6.7 1.9-24 1.9-37.5.1-20.7-1-29.5-5.1-39.5-7.2-17.7-18.3-27.6-43.4-38.7-5.7-2.5-25-9.4-42.9-15.3-36.4-12.1-46.6-16.5-62.6-27.2-16.5-11-28.7-21.1-50.3-41.7-7.5-7.1-16.2-14.8-19.4-17.1-7.4-5.3-20.1-11.2-29.7-13.8-7.4-2-10-2.6-19-3.7-8.7-1.2-10.5-1.4-14.7-1.4l-4.3-.1 3.2-6.5 3.3-6.6 4.5.7c2.5.4 5.4.8 6.5 1zm-156 21c-6.9 12.4-12.7 21.3-16.7 26.1-4.3 5.1-4.3 5-2.2-2.5 3.5-12.3 7.1-17.4 21.9-31 2-1.9 1.4-.4-3 7.4zm145.9 3.9c5.5.3 10.2.7 10.5.9s2.9.6 5.7 1c11.3 1.3 27.8 7.9 36.9 14.6 6.5 4.9 8.3 6.4 19 16.9 18.9 18.4 40.9 36.2 57.5 46.4 12.7 7.8 24 12.5 55.3 22.9 31.8 10.6 39.8 13.5 51.2 18.9 22.2 10.5 31.6 22.5 34.3 43.9 1.2 9.9.2 52.3-1.3 55-.1.3-.5 4.3-.9 9s-.8 9.8-1 11.5c-.2 1.6-.7 6.1-1.1 10-.4 3.8-.8 7.7-1 8.5s-.6 5.3-1 9.9c-.4 4.7-.8 9.2-1 10.1s-.6 4.3-.9 7.6c-.4 3.2-.9 7.2-1.1 8.9-.3 1.6-.7 4.6-1 6.5-2 15.8-6.8 26.3-18.9 41-37.4 45.5-48.7 62.1-63.7 93.7-16.6 34.9-22.9 46.8-27.7 51.9-2.6 2.9-13.2 11.1-23.5 18.3-21.2 14.8-35.3 25.6-54.1 41.4-7.1 5.9-14.7 12.1-17 13.6-11.2 7.7-27.1 14.2-38.9 15.8-8.7 1.2-25.7.7-34.7-1.1-9.1-1.9-34-8.9-39.9-11.3-15.4-6.2-46.6-25.1-71.6-43.3-9.8-7.1-32-23.9-34-25.7-1.1-1-3.6-3.1-5.5-4.6-6.5-5.3-17.2-16.2-21.4-21.7-3.6-4.7-6-9.5-11.7-23.5-.4-1.1-2.2-5.6-4-10-8.2-20.4-22-38.3-57.9-75.5-3.7-3.7-18-21.1-22.7-27.5-6.1-8.4-12.6-20.1-15.2-27.7l-1.9-5.5 6-7.9c9.8-13 19.8-36.3 19.8-46.1 0-5.3 14.7-15.8 37-26.5 8-3.8 16.4-7.9 18.8-9 19.1-9.4 34.2-25.6 42.5-45.9 5.1-12.1 6.9-22.1 7.3-38.9.2-8 .5-17 .8-20s.8-9.6 1.2-14.5c.4-5 .8-9.7 1-10.5.1-.8.3-2.2.3-3.1.1-1.8 5.4-7.6 9.8-10.7 5.1-3.6 16.1-8.7 24.8-11.5 6.7-2.2 28.7-7.7 57.5-14.2 26.5-6.1 26.9-6.2 32.3-10.7 8.3-7 21.3-20.8 26.5-28.5 2-2.9 5-4.3 7.7-3.7.6.2 5.5.5 10.9.9zm-33.5.4c-.6 1.8-13.2 15.1-18.1 19.2-4.2 3.6-6 4.2-22 8-23 5.5-36.6 8.6-40.3 9.3-17.2 3.4-41.9 12.2-49.5 17.6-4.6 3.3-3.8.6 3-9.8 3.3-5 6-9.5 6-9.9 0-1.9 6.5-8.5 11.3-11.7 15.1-9.8 30.1-15 54.2-19 13.1-2.2 15.9-2.5 27-3.2 5.5-.3 10.1-.7 10.2-.8.2-.1 4.4-.3 9.4-.5 5.9-.1 9 .2 8.8.8zm-145 19.8c-1.6 5.4-3.1 10.7-3.3 11.8-1.1 5.1-9.6 27.8-11 29.4-1.4 1.5-11.5 7.1-12.9 7.1-.2 0 0-2.4.4-5.3.5-2.8 1.1-7 1.5-9.2 2.9-19.7 4.3-23.1 12-30 3.7-3.3 8.6-7.7 10.8-9.7 2.3-2.1 4.4-3.8 4.7-3.8.4 0-.6 4.4-2.2 9.7zm437.9 47.6c6.7 4.8 12.2 9 12.2 9.3 0 1.2-12-5-17-8.8-3.6-2.8-14-12.7-14-13.4s2.8 1.2 18.8 12.9zM255 228c-1.2 1.6-2.3 3-2.5 3-.9 0 .6-4.4 1.7-5.2 2.6-1.6 2.9-.7.8 2.2zm617.5 1.1c17.9 6.7 32.6 26.1 46.3 60.8 7.6 19.5 23.2 67.2 24.3 74.5 1.3 8 .7 20.3-.9 21.7-.7.5-1 .7-.8.3.9-1.3-6.6-20.9-12.9-33.4-3.7-7.4-7-14-7.5-14.5-.4-.6-1.9-3-3.2-5.5-1.4-2.5-3.4-6.1-4.5-8s-4.8-9.1-8.3-16c-3.5-6.8-8.8-16.1-11.8-20.5-4.8-7-17.6-24.1-19.2-25.5-.3-.3-2.2-2.5-4.4-5-2.1-2.5-9.7-10.4-16.8-17.7l-13-13.1 5.8-.7c3.3-.4 6.3-.8 6.8-.9 2.3-.6 15.2 1.7 20.1 3.5zm-136 5.9c4.4 1.1 9.3 2 10.8 2 3.8 0 6.2 1.4 10.5 6.2 8.1 9 23.1 19.3 39.2 27.1 31 14.8 39.3 19.1 46.5 23.8 4.4 2.9 8.2 5.5 8.5 5.9.3.3 3.2 2.5 6.5 5 13.8 10.5 28.1 27.4 30.5 36.1.5 2 2.1 9.6 3.6 17 2.5 13.2 2.9 15.5 3.8 21.4.2 1.6.7 4.3.9 6 1.5 8.7 2 12.2 2.2 14 .3 3.5 1.5 13.9 2 17 .2 1.6.7 5.9 1 9.5.5 6.5.5 6.5-2.9 9.1-13.2 9.8-31.3 27.9-38 37.8-10.9 16.4-15.2 32.7-14.3 54.1.4 6.9.8 13.4 1 14.5.3 1.1.8 4.2 1.1 6.8.4 2.7.9 5.7 1.1 6.7.2.9.6 3.5.9 5.6.4 2.2.9 5.4 1.2 7.2.6 3 .2 3.8-3.7 7.4-25.6 23.3-35.4 37.7-41.8 60.8-3.3 12.2-4 18-4.6 40.1-.5 17.6-3.7 40.3-7.6 53.4-3.6 12.3-12.7 28.5-21 37.7-2.4 2.5-7.2 5.4-15.9 9.4-16.6 7.6-30.1 15.1-43.5 23.8-12.1 8-26.4 15.2-42.5 21.5-5.8 2.3-11.4 4.6-12.5 5.1s-13.2 4.7-27 9.4c-30 10.1-28.9 9.7-44.3 18.5-23.2 13.4-31.7 15.8-67.2 18.6-20.5 1.7-41.2 6.5-57.5 13.5l-4.3 1.8-4.8-5.2c-2.7-2.8-8.9-9.7-13.8-15.1-15.3-17-42.7-43.7-52.1-50.8-10.1-7.5-24.3-14.9-32.3-16.7-3-.7-10.8-1.3-17.5-1.5-7.5-.1-14.5-.8-18.2-1.8-21.1-5.8-41.1-17.6-59-35l-5-4.8 12.5.5c12.4.6 26.1 1.6 29 2.1.8.1 4 .6 7 1 21.1 2.6 49.1 9.5 66 16.2 3.6 1.4 11.2 4.8 17 7.5 18.2 8.6 46.6 16.6 68.9 19.3 3 .4 6.1.8 7 1 2.5.4 11.2 1.5 15.6 1.9 9.1.9 17.5 1.6 26.5 2.3 12.2.9 62.9 1 69.5.1 6.1-.8 18.3-3.5 21-4.7 1.1-.5 5.1-2.1 9-3.7 19.3-7.8 35.3-23.7 45.7-45.4 13-27.1 17.3-35.6 21.5-42.8 4.2-7.1 7.5-12 22.5-33.7 8.3-12 14-24.9 17.3-39.3 2.6-11.2 3-14.3 5-38.2 1.2-13.4 6.2-26.6 15.8-41.3 8.8-13.4 16-21.6 33.3-37.7 10-9.3 15.3-16.1 19.3-24.4 3.5-7.4 6.8-19.3 7.9-28.1 1.4-12 .7-52-1.3-68.2-.2-1.6-.6-5.7-1-9.3-.7-6.7-1-8.9-2.1-17.5-1-8.4-1.1-8.8-2.3-15.2-5.3-28.1-19.6-60.7-40.4-92.1-8.9-13.4-21.9-30.8-29.5-39.5-1.2-1.3.1-1 4.9 1.2 3.5 1.7 10 4 14.4 5.1zm-469.7 1.2c-3.3 6.4-13.6 17.8-15.9 17.8-.7 0 .5-1.9 2.7-4.3 7.3-7.6 9.4-10.1 12.5-15 1.7-2.6 3.3-4.7 3.6-4.7.2 0-1.1 2.8-2.9 6.2zm575.5 12.1c24.1 23.9 41.1 46.4 53.2 70.6 3.1 6.3 8.5 16.4 12 22.5 14.3 25.3 22 44.6 24.1 59.9l.6 4.9-8.4 8.1-8.3 8.1-.7-5.5c-.4-2.9-.9-7.7-1.3-10.4-1-8.7-1.3-10.7-3.5-24-7.8-48-10.1-54.9-23.5-69.4-18.2-19.7-40.6-35-72-49.1-8.6-3.8-22.9-11.1-25.7-13.1-1.4-1.1-2.9-1.9-3.3-1.9-.8 0-11.7-8.4-13.3-10.2-.9-1.1-.7-1.4 1.1-1.4 3-.1 16.6-1.3 19.7-1.9 1.4-.2 8.4-1.4 15.5-2.6 7.2-1.2 13.2-2.3 13.4-2.5.6-.6 9.5 7.2 20.4 17.9zm-603.7-10.6c-.3 2.1-.5 4.8-.6 6 0 4.4-8.5 9.9-28 18.2-6.9 3-18.5 8.2-25.9 11.8-7.3 3.5-13.6 6.2-13.9 5.9-.6-.7 3.8-6.6 8.4-11.1 1.8-1.9 6.6-5.3 10.6-7.6 7.3-4.3 49-26.9 49.6-26.9.2 0 .1 1.7-.2 3.7zm36.9 11.3c-.3.5-.7 8.5-.9 17.7-.5 20.1-2.2 28.1-9.3 42.3-3.9 7.8-6.3 11-13.3 18-9.2 9.2-15.4 13.3-29.5 19.5-4.9 2.2-11.9 5.5-15.5 7.4-5.3 2.9-6.2 3.1-5 1.4.8-1.1 4.7-6.3 8.7-11.5 8-10.6 22.9-33.2 31.6-47.8 5.6-9.5 6.3-12 6.6-23.1.1-2 1.1-3.1 5.1-5.3 7.2-3.9 14.3-9.8 18.1-15 1.8-2.5 3.4-4.6 3.6-4.6s.1.4-.2 1zm-40 29.7c.3 2.2-4.3 10.8-14.8 27.3-14.4 22.5-24 35.3-33.9 45.3-11.6 11.5-12.6 13-14.7 20.7-1.4 4.9-2.8 7.1-8.2 12.7-18.8 19.6-27.4 38.1-23.9 51.3 1.1 4.2 1.1 4.2-3.3 8.6-2.5 2.4-4.8 4.4-5.2 4.4-1.2 0-3.3-3-6.4-9-8.1-15.5-9.6-32.3-4.7-53.3 2-8.7 4.7-15.4 16.4-41.9 16.6-37.4 15.8-36.1 31.2-46.7 7.9-5.4 9.4-6 22-9 13.8-3.3 33.3-8.8 40.5-11.4 4.5-1.6 4.5-1.6 5 1zm-93.1 22.5c-.4.7-3.3 4.2-6.4 7.8-17.5 20.5-28.3 43-44 91.5-8.7 26.8-9.1 28.2-9.6 31.1-1.6 8.8-1.5-3.6.1-19.6.2-1.9.6-6.7.9-10.5.3-3.9.8-7.9 1-9s.7-4.3 1-7c.4-2.8 1.8-10 3.2-16.1 8.9-40.3 24.3-62 47.9-68 6.5-1.6 6.8-1.6 5.9-.2zm18.7 111c-2.3 4.6-5 9.4-6.1 10.8l-2 2.5 1-3.5c1.1-3.7 10.1-19.2 10.8-18.5.3.2-1.4 4.1-3.7 8.7zm-56.3 1c.5 14.2 5.4 29.3 13.3 40.9l3.8 5.6-4.5 5.9c-2.4 3.2-6.4 9.8-8.9 14.7l-4.4 8.7-6-5.8c-6.9-6.8-8.3-10.7-8-21.5.3-10 4.9-28.4 13.4-54.5.8-2.3 1-1.2 1.3 6zm827.6 16c-1.8 13-5.7 26.4-11.3 38.8-1.4 3-2.1 3.8-2.2 2.5 0-1.1-.2-3.6-.4-5.5-.1-1.9-.6-8.9-1-15.6-.7-11.9-.7-12 1.6-13.6 1.3-.9 4.7-3.6 7.4-6.2 2.8-2.5 5.3-4.6 5.7-4.6s.5 1.9.2 4.2zm-27.7 22.5c0 1.6.4 9.1.8 16.8s.8 18.1.9 23l.1 9-5.4 10.4c-8.9 17.4-16.5 28.3-28.5 41.1-6.7 7.1-8.2 8.4-8.3 6.7-.1-1.3-.3-2.7-2.7-17.7-1.9-12.1-1.5-32.3.9-40s7.5-17.5 12.8-24.5c5.7-7.6 26.4-27.5 28.5-27.5.5 0 .9 1.2.9 2.7zm-771.8 28.5c5.1 11.2 12.3 29 11.8 29.5-.4.3-27.1-13-28.5-14.2-1.2-1 10.8-22.5 12.6-22.5.4 0 2.3 3.3 4.1 7.2zm-48.6 7.6c1.4 2.1 5.7 6.3 9.6 9.2 6.1 4.7 7 5.8 6.6 8-.7 3.3-.7 17.9 0 19 .3.5.1 1.1-.3 1.4-1.8 1.1-10.8-12-14.3-20.7-3.1-7.6-6-20.7-4.6-20.7.2 0 1.6 1.7 3 3.8zm49.1 31.6c9.7 5.2 17.1 9.7 17.5 10.8.8 2.3.6 11.7-.5 19.5-.4 3.2-.8 6.1-.8 6.5-.3 2.4-6.3.3-13.3-4.5-1.7-1.2-6.3-3.9-10.2-6-4.5-2.4-7.6-4.7-8.5-6.6-2.2-4.2-5.2-20.1-4.8-25.4.5-5.5-1.5-6 20.6 5.7zm771.2 15.8c-.2 1.8-.8 5.3-1.1 7.8-2.1 15.1-8.5 32.9-20 55.9-13.7 27.2-20.4 45.3-29.1 79.6-3 11.5-5.2 18.7-4.9 16 .2-2.8.7-8.8 1-13.5 2.3-32.5 3.1-37 9.5-53.3 6.2-16.1 7.3-21.4 7.4-37.4l.1-14.2 9.6-9.8c10-10.3 19.3-21.5 24.4-29.6 1.7-2.6 3.1-4.7 3.3-4.7s.1 1.5-.2 3.2zm-731.7 7.9c24 16.8 34.9 35.3 30.2 51.4l-1.2 4-10.2-10c-6-5.9-14.5-12.9-20.5-16.8-8.7-5.8-10.1-7.1-9.7-9 1.6-7.8 2.5-13.9 2.7-18.9.2-3.2.6-5.8.9-5.8s3.8 2.3 7.8 5.1zm-27 31.2c-.1 1.2-.4 3.3-.8 4.7-.6 2.3-1 2.1-6.5-4.5-8.5-10.3-8.5-10.7-.1-6.3 6 3.1 7.5 4.4 7.4 6.1zm23.7 12.3c7.6 5.3 16.7 14.2 22.2 21.5l4.2 5.5-5.1 15c-2.8 8.2-6.8 21.6-8.9 29.9l-3.9 15V661c0-15.2-.7-21.3-3.2-30.8-2.4-9.1-7.1-18.5-14.1-28.3-3-4.1-5.3-8.2-5.2-9 .2-.8.8-4.2 1.5-7.7l1.1-6.3 2.7 1.7c1.4.9 5.3 3.6 8.7 6zm684.8 7.8c-.5 11.7-1.4 15.5-7 29.3-6.2 14.9-7.9 24.6-9.9 55.8-.7 11.4-2 21.8-3 25.5-.2.8-.7 3.1-1 5-.9 5.6-2.4 10-6.3 18-2.8 5.9-5.5 9.4-12.6 16.5-5 4.9-11 10-13.4 11.3l-4.3 2.3 3.4-6.8c6.8-13.4 9.9-24.6 12.2-43.4.3-2.4 1-6.1 1.6-8.1.5-2 1.2-11.5 1.4-21 .7-28.8 3.1-41 11-56.8 4.5-9 11.5-18.2 20.2-26.8 4.1-3.9 7.5-7.2 7.7-7.2.1 0 .2 2.9 0 6.4zm-695.8 29.1c1.8 3.8 3.5 8.1 3.8 9.5s.8 3.6 1.2 5c.8 2.7 1.3 41 .6 50.3-.5 6.8-.4 6.9-6.5-7.5-6.4-14.9-7.8-21.4-8.1-37.3-.2-8.2.2-12.9 2-26.5.6-4.2.7-4.4 2.1-2.5.8 1.1 3 5.1 4.9 9zm50.8 24.9c.8 4.5 1.4 14.8 1.4 23.1.1 29.6 3.5 43.2 17.9 71.5.6 1.1-17.5-.2-22.4-1.6-16.5-4.6-21.6-21.4-16.8-55.9 1.4-10.2 6.4-29.8 12.2-48l2.6-8 1.9 5.5c1 2.9 2.4 9 3.2 13.4zm-.9 107c1.7.3 9.1.7 16.5 1.1 12.4.5 13.7.7 15.3 2.8 5.5 6.8 20.4 20.8 28.2 26.7 24.4 18.2 46.8 26.7 71.2 26.9 5.9 0 11.7.3 12.8.5 9.1 1.9 23.7 10.6 36.7 21.8 11 9.5 22.2 20.9 45.7 46.7l11.3 12.3-5.4 2.7c-9.9 5-24.3 10.9-29.9 12.4-5.2 1.3-15.7 1.5-20.4.3-18.7-4.7-34.7-8.5-37.5-9-1.9-.3-4.6-.8-6-1.1-4.2-.8-26.3-3.8-37.4-5-10-1.1-17.5-2.9-28-6.5-5-1.7-7-3.2-13-9.7-8.8-9.6-17.1-17.8-21.2-20.9-6.1-4.7-13.7-23.9-16.9-42.7-1.5-8.5-4.7-20.1-6.6-23.9-1.2-2.4-6.8-11-12.4-19.3-13.1-19.3-12.3-17.8-8.9-17.1 1.6.3 4.3.8 5.9 1zm599.3 14.8c-7.2 8.7-17.6 19.7-28.8 30.8-34 33.4-53.6 47.9-76.9 56.7-10.4 3.9-49.1 17.2-49.1 16.9 0-.2 6.4-3.9 14.3-8.2 14.5-7.9 33-19.2 44.7-27.3 6.7-4.6 25.1-18.1 26-19.1.3-.3 2.8-2.3 5.5-4.5 9-7.2 10.8-8.9 24.2-22 11-10.9 14.5-13.7 20.5-16.5 4-1.9 10.7-5.4 14.8-7.7s7.9-4.2 8.3-4.2c.5-.1-1.1 2.2-3.5 5.1zm-592.3 37.4c1.4 5.4 2.5 10.3 2.4 10.9 0 1-9.3-23.9-10.5-28-.3-1.1.9.1 2.6 2.6 1.9 3 3.9 8.2 5.5 14.5zm526.5-8.2c0 .6-17.6 14.6-26 20.7-15.6 11.4-36.8 24.9-54.5 34.6-11.4 6.3-42.4 21.3-53 25.7-4.9 2.1-10.3 4.4-12 5.1-12.8 5.6-45.2 15.9-60 19.1-4.7 1-12.2 2.5-15 2.9-1.6.3-5.5.8-8.6 1.3-6.3.9-21.4.8-27.4-.3-2.2-.3-5.8-1.7-8-3-4-2.3-8.2-6.2-7.4-6.9 1.1-1 17-5.9 26.1-8 10.6-2.5 16.3-3.3 28.3-4.2 33.5-2.4 46.6-6.4 75.2-22.7 8.7-5 15.5-7.8 30-12.6 46.6-15.4 71.8-26.3 92.4-39.9 12.9-8.5 19.9-12.7 19.9-11.8zm-122.5 91.5c-.6.5-4.4 3.7-8.5 7.1-9.7 8-15.7 13.5-31 28.5-27.8 27.2-38.6 36.3-48.3 40.8-8.5 4-12.3 4.6-43.7 6.2-6.3.4-12.6.8-14 1s-5.6.6-9.5 1c-6 .5-10.5 1.1-23 2.9-5.5.8-13.8 1.9-20.5 2.6-8 .9-35.1.6-41-.4-24.6-4.1-39.6-13.2-52-31.3-5.4-7.9-18.5-24.1-29.4-36.6-3.2-3.7-5.7-6.9-5.5-7.1.2-.3 2.6 0 5.4.5 2.7.5 7.5 1.2 10.5 1.5 3 .2 6.6.7 8 .9 2.3.3 5.6.7 16 2 8.2 1 30.5 5.7 43 9 27.3 7.3 36.7 5.8 73.1-12l6.6-3.2 5.9 5.5c7 6.5 15.4 10.7 24.4 12.1 6.2 1 24.9.8 30.1-.3 1.3-.3 4.2-.7 6.4-1 19.5-2.3 61.8-15.3 90-27.5 7.6-3.3 8.4-3.6 7-2.2z"/></svg>